<svg width="196" height="34" viewBox="0 0 196 34" fill="none" xmlns="http://www.w3.org/2000/svg">
<path d="M13.572 7.56006C16.836 7.56006 19.236 8.22005 20.772 9.54006C22.332 10.8601 23.112 12.5881 23.112 14.7241C23.112 15.4441 23.016 16.2481 22.824 17.1361C22.368 19.1041 21.516 20.8321 20.268 22.3201C19.02 23.7841 17.484 24.9241 15.66 25.7401C13.86 26.5321 11.904 26.9281 9.79202 26.9281C6.45601 26.9281 3.98401 26.2681 2.37601 24.9481C0.792005 23.6041 0 21.8281 0 19.6201C0 18.8761 0.096 18.0481 0.288 17.1361C0.744005 15.2641 1.608 13.6081 2.88 12.1681C4.176 10.7041 5.748 9.57606 7.596 8.78406C9.468 7.96806 11.46 7.56006 13.572 7.56006ZM13.464 10.7641C12.96 10.7641 12.42 11.2201 11.844 12.1321C11.292 13.0201 10.632 14.7121 9.86401 17.2081C9.096 19.7041 8.712 21.4561 8.712 22.4641C8.712 22.9921 8.796 23.3521 8.964 23.5441C9.132 23.7121 9.36001 23.7961 9.64802 23.7961C10.152 23.8441 10.668 23.4121 11.196 22.5001C11.748 21.5881 12.432 19.8121 13.248 17.1721C13.992 14.8441 14.364 13.1521 14.364 12.0961C14.364 11.5921 14.28 11.2441 14.112 11.0521C13.968 10.8601 13.752 10.7641 13.464 10.7641Z" fill="white"/>
<path d="M44.6302 21.636C44.5822 21.732 44.5583 21.876 44.5583 22.068C44.5583 22.236 44.5943 22.368 44.6663 22.464C44.7623 22.56 44.8822 22.608 45.0262 22.608C45.3142 22.608 45.5543 22.488 45.7463 22.248C45.9623 21.984 46.1062 21.852 46.1782 21.852C46.2982 21.852 46.3943 21.936 46.4663 22.104C46.5383 22.248 46.5742 22.428 46.5742 22.644C46.5982 23.34 46.3703 24.024 45.8903 24.696C45.4103 25.344 44.7023 25.884 43.7663 26.316C42.8543 26.724 41.7503 26.928 40.4543 26.928C38.8703 26.928 37.6103 26.568 36.6743 25.848C35.7383 25.104 35.2582 24.12 35.2342 22.896C35.2342 22.008 35.4503 21.012 35.8823 19.908L37.8623 14.724C37.9823 14.412 38.0423 14.16 38.0423 13.968C38.0423 13.656 37.9343 13.416 37.7183 13.248C37.5263 13.056 37.2862 12.96 36.9982 12.96C36.5422 12.96 36.0742 13.176 35.5942 13.608C35.1382 14.016 34.7662 14.688 34.4782 15.624V15.552L32.2102 22.86C32.1382 23.148 32.1022 23.4 32.1022 23.616C32.1022 23.928 32.1622 24.18 32.2822 24.372C32.4022 24.54 32.5703 24.708 32.7863 24.876C32.9543 25.044 33.0743 25.188 33.1463 25.308C33.2183 25.404 33.2303 25.536 33.1823 25.704C33.0623 26.016 32.8222 26.244 32.4622 26.388C32.1022 26.532 31.5502 26.604 30.8062 26.604H22.5982C21.9742 26.604 21.5182 26.508 21.2302 26.316C20.9422 26.1 20.8463 25.824 20.9423 25.488C21.0383 25.2 21.2902 24.948 21.6982 24.732C22.0582 24.54 22.3582 24.312 22.5982 24.048C22.8382 23.784 23.0422 23.364 23.2102 22.788L28.6823 4.824C28.7543 4.608 28.7902 4.428 28.7902 4.284C28.7902 4.02 28.7183 3.804 28.5743 3.636C28.4543 3.468 28.2862 3.3 28.0702 3.132C27.8302 2.94 27.6502 2.772 27.5302 2.628C27.4342 2.484 27.4223 2.292 27.4943 2.052C27.6383 1.5 28.3942 1.02 29.7622 0.611994C31.1302 0.204 32.5582 0 34.0462 0C35.4382 0 36.4583 0.264 37.1063 0.792004C37.7783 1.32 38.1143 2.04 38.1143 2.952C38.1143 3.48 38.0303 3.996 37.8623 4.5L35.9183 10.836C36.8543 9.612 37.8383 8.76 38.8703 8.28C39.9263 7.8 41.0662 7.56 42.2902 7.56C43.7542 7.56 44.9302 8.004 45.8182 8.892C46.7302 9.78 47.1862 10.932 47.1862 12.348C47.1862 13.092 47.0663 13.824 46.8263 14.544L44.6302 21.636Z" fill="white"/>
<path d="M82.3578 21.6361C82.3098 21.7321 82.2858 21.8761 82.2858 22.0681C82.2858 22.2361 82.3218 22.3681 82.3938 22.4641C82.4898 22.5601 82.6098 22.6081 82.7538 22.6081C83.0418 22.6081 83.2818 22.4881 83.4738 22.2481C83.6898 21.9841 83.8338 21.8521 83.9058 21.8521C84.0258 21.8521 84.1218 21.9361 84.1938 22.1041C84.2658 22.2481 84.3018 22.4281 84.3018 22.6441C84.3258 23.3401 84.0978 24.0241 83.6178 24.6961C83.1378 25.3441 82.4298 25.8841 81.4938 26.3161C80.5818 26.7241 79.4778 26.9281 78.1818 26.9281C76.5978 26.9281 75.3378 26.5681 74.4018 25.8481C73.4658 25.1041 72.9858 24.1201 72.9618 22.8961C72.9618 22.0081 73.1778 21.0121 73.6098 19.9081L75.5898 14.7241C75.7098 14.4121 75.7698 14.1601 75.7698 13.9681C75.7698 13.6561 75.6618 13.4161 75.4458 13.2481C75.2538 13.0561 75.0138 12.9601 74.7258 12.9601C74.3178 12.9601 73.8978 13.1401 73.4658 13.5001C73.0338 13.8601 72.6498 14.4241 72.3138 15.1921L70.3338 21.6361C70.2858 21.7321 70.2618 21.8761 70.2618 22.0681C70.2618 22.2361 70.2978 22.3681 70.3698 22.4641C70.4658 22.5601 70.5858 22.6081 70.7298 22.6081C71.0178 22.6081 71.2578 22.4881 71.4498 22.2481C71.6658 21.9841 71.8098 21.8521 71.8818 21.8521C72.0018 21.8521 72.0978 21.9361 72.1698 22.1041C72.2418 22.2481 72.2778 22.4281 72.2778 22.6441C72.3018 23.3401 72.0738 24.0241 71.5938 24.6961C71.1138 25.3441 70.4058 25.8841 69.4698 26.3161C68.5578 26.7241 67.4538 26.9281 66.1578 26.9281C64.5738 26.9281 63.3138 26.5681 62.3778 25.8481C61.4418 25.1041 60.9618 24.1201 60.9378 22.8961C60.9378 22.0081 61.1538 21.0121 61.5858 19.9081L63.5658 14.7241C63.6858 14.4121 63.7458 14.1601 63.7458 13.9681C63.7458 13.6561 63.6378 13.4161 63.4218 13.2481C63.2298 13.0561 62.9898 12.9601 62.7018 12.9601C62.2938 12.9601 61.8738 13.1401 61.4418 13.5001C61.0098 13.8361 60.6498 14.3881 60.3618 15.1561L57.9858 22.8601C57.8898 23.1241 57.8418 23.3761 57.8418 23.6161C57.8418 23.9041 57.9018 24.1441 58.0218 24.3361C58.1418 24.5041 58.3098 24.6841 58.5258 24.8761C58.6938 25.0201 58.8138 25.1521 58.8858 25.2721C58.9578 25.3921 58.9698 25.5361 58.9218 25.7041C58.8258 26.0161 58.5978 26.2441 58.2378 26.3881C57.8778 26.5321 57.3138 26.6041 56.5458 26.6041H48.3378C47.7138 26.6041 47.2698 26.5081 47.0058 26.3161C46.7178 26.1001 46.6098 25.8241 46.6818 25.4881C46.7778 25.2001 47.0298 24.9481 47.4378 24.7321C47.7978 24.5401 48.0978 24.3121 48.3378 24.0481C48.5778 23.7841 48.7818 23.3641 48.9498 22.7881L52.1538 12.3841C52.2018 12.2641 52.2258 12.0961 52.2258 11.8801C52.2258 11.6161 52.1658 11.4121 52.0458 11.2681C51.9498 11.1241 51.7818 10.9441 51.5418 10.7281C51.3018 10.5361 51.1338 10.3681 51.0378 10.2241C50.9418 10.0801 50.9298 9.88806 51.0018 9.64806C51.1458 9.09606 51.9018 8.61606 53.2698 8.20806C54.6378 7.77606 56.0658 7.56006 57.5538 7.56006C58.7298 7.56006 59.6538 7.88406 60.3258 8.53206C61.0218 9.18006 61.3578 10.0681 61.3338 11.1961C62.3178 9.82806 63.3498 8.88006 64.4298 8.35206C65.5338 7.82406 66.7218 7.56006 67.9938 7.56006C69.3858 7.56006 70.5138 7.96806 71.3778 8.78406C72.2658 9.57606 72.7578 10.6201 72.8538 11.9161C73.8858 10.2841 74.9898 9.15606 76.1658 8.53206C77.3418 7.88406 78.6258 7.56006 80.0178 7.56006C81.4818 7.56006 82.6578 8.00406 83.5458 8.89206C84.4578 9.78006 84.9138 10.9321 84.9138 12.3481C84.9138 13.0921 84.7938 13.8241 84.5538 14.5441L82.3578 21.6361Z" fill="white"/>
<path d="M104.573 7.55993C105.629 7.55993 106.469 7.99193 107.093 8.85593C107.741 9.69593 108.065 10.8479 108.065 12.3119C108.065 13.5839 107.837 14.9519 107.381 16.4159C106.493 19.3679 105.065 22.1519 103.097 24.7679C101.153 27.3839 98.9081 29.4839 96.3641 31.0679C93.8441 32.6519 91.3242 33.4439 88.8042 33.4439C87.5562 33.4439 86.4761 33.2279 85.5641 32.7959C84.6761 32.3639 84.0041 31.7879 83.5481 31.0679C83.0681 30.3479 82.8281 29.5799 82.8281 28.7639C82.8281 28.4039 82.8881 28.0079 83.0081 27.5759C83.2241 26.9039 83.5841 26.3879 84.0881 26.0279C84.5921 25.6679 85.1922 25.4879 85.8882 25.4879C86.9922 25.4879 87.8921 25.8599 88.5881 26.6039C89.3081 27.3719 89.7642 28.4159 89.9562 29.7359C91.4922 29.6639 92.9081 29.0039 94.2041 27.7559C92.9801 27.5399 92.0681 27.1319 91.4681 26.5319C90.8921 25.9079 90.4961 24.9479 90.2801 23.6519L88.8401 14.8319C88.7681 14.3759 88.6601 14.0639 88.5161 13.8959C88.3961 13.7039 88.2282 13.6079 88.0122 13.6079C87.8442 13.6079 87.6401 13.6919 87.4001 13.8599C87.1841 14.0279 87.0281 14.1119 86.9321 14.1119C86.7401 14.1119 86.6441 13.9079 86.6441 13.4999C86.6441 13.1639 86.7041 12.8039 86.8241 12.4199C87.2561 11.0519 88.0602 9.89993 89.2362 8.96393C90.4122 8.00393 91.7801 7.52393 93.3401 7.52393C94.8761 7.52393 96.0041 7.97993 96.7241 8.89193C97.4681 9.80393 97.9482 11.2079 98.1642 13.1039L99.2441 21.0239C99.3161 21.6239 99.5321 21.9239 99.8926 21.9239C100.325 21.9239 100.829 21.5399 101.405 20.7719C101.981 19.9799 102.545 18.8639 103.097 17.4239C102.377 16.7759 101.825 16.0319 101.441 15.1919C101.057 14.3519 100.865 13.4519 100.865 12.4919C100.865 11.7479 100.961 11.0759 101.153 10.4759C101.441 9.51593 101.885 8.79593 102.485 8.31593C103.109 7.81193 103.805 7.55993 104.573 7.55993Z" fill="white"/>
<path d="M122.504 0C125.072 0 126.992 0.396 128.264 1.188C129.56 1.956 130.208 2.904 130.208 4.032C130.208 4.944 129.824 5.652 129.056 6.156C128.312 6.636 127.328 6.876 126.104 6.876C124.976 6.876 124.1 6.6 123.476 6.048C122.852 5.496 122.54 4.812 122.54 3.996C122.54 3.492 122.696 2.964 123.008 2.412C122.288 2.412 121.688 2.592 121.208 2.952C120.728 3.288 120.356 3.876 120.092 4.716C119.948 5.244 119.876 5.736 119.876 6.192C119.876 6.768 119.972 7.224 120.164 7.56C120.38 7.872 120.68 8.028 121.064 8.028H123.188C124.436 8.028 125.06 8.412 125.06 9.18C125.06 9.276 125.036 9.42 124.988 9.612C124.844 10.14 124.544 10.536 124.088 10.8C123.656 11.064 122.996 11.196 122.108 11.196H121.028L117.464 22.86C117.392 23.148 117.356 23.4 117.356 23.616C117.356 23.928 117.416 24.18 117.536 24.372C117.656 24.54 117.824 24.708 118.04 24.876C118.208 25.044 118.328 25.188 118.4 25.308C118.472 25.404 118.484 25.536 118.436 25.704C118.316 26.016 118.076 26.244 117.716 26.388C117.356 26.532 116.804 26.604 116.06 26.604H107.852C107.228 26.604 106.772 26.508 106.484 26.316C106.196 26.1 106.1 25.824 106.196 25.488C106.292 25.2 106.544 24.948 106.952 24.732C107.312 24.54 107.612 24.312 107.852 24.048C108.092 23.784 108.296 23.364 108.464 22.788L111.272 13.572C111.392 13.212 111.452 12.84 111.452 12.456C111.452 11.976 111.344 11.604 111.128 11.34C110.936 11.052 110.636 10.74 110.228 10.404C109.964 10.188 109.76 10.008 109.616 9.864C109.496 9.696 109.436 9.504 109.436 9.288C109.412 8.832 109.568 8.508 109.904 8.316C110.264 8.124 110.936 8.028 111.92 8.028H112.82C112.652 7.428 112.568 6.828 112.568 6.228C112.568 5.628 112.676 5.004 112.892 4.356C113.348 3.132 114.32 2.1 115.808 1.25999C117.32 0.42 119.552 0 122.504 0Z" fill="white"/>
<path d="M136.724 7.56006C139.988 7.56006 142.388 8.22005 143.924 9.54006C145.484 10.8601 146.264 12.5881 146.264 14.7241C146.264 15.4441 146.168 16.2481 145.976 17.1361C145.52 19.1041 144.668 20.8321 143.42 22.3201C142.172 23.7841 140.636 24.9241 138.812 25.7401C137.012 26.5321 135.056 26.9281 132.944 26.9281C129.608 26.9281 127.136 26.2681 125.528 24.9481C123.944 23.6041 123.152 21.8281 123.152 19.6201C123.152 18.8761 123.248 18.0481 123.44 17.1361C123.896 15.2641 124.76 13.6081 126.032 12.1681C127.328 10.7041 128.9 9.57606 130.748 8.78406C132.62 7.96806 134.612 7.56006 136.724 7.56006ZM136.616 10.7641C136.112 10.7641 135.572 11.2201 134.996 12.1321C134.444 13.0201 133.784 14.7121 133.016 17.2081C132.248 19.7041 131.864 21.4561 131.864 22.4641C131.864 22.9921 131.948 23.3521 132.116 23.5441C132.284 23.7121 132.512 23.7961 132.8 23.7961C133.304 23.8441 133.82 23.4121 134.348 22.5001C134.9 21.5881 135.584 19.8121 136.4 17.1721C137.144 14.8441 137.516 13.1521 137.516 12.0961C137.516 11.5921 137.432 11.2441 137.264 11.0521C137.12 10.8601 136.904 10.7641 136.616 10.7641Z" fill="white"/>
<path d="M160.349 7.56006C163.613 7.56006 166.013 8.22005 167.549 9.54006C169.109 10.8601 169.889 12.5881 169.889 14.7241C169.889 15.4441 169.793 16.2481 169.601 17.1361C169.145 19.1041 168.293 20.8321 167.045 22.3201C165.797 23.7841 164.261 24.9241 162.437 25.7401C160.637 26.5321 158.681 26.9281 156.569 26.9281C153.233 26.9281 150.761 26.2681 149.153 24.9481C147.569 23.6041 146.777 21.8281 146.777 19.6201C146.777 18.8761 146.873 18.0481 147.065 17.1361C147.521 15.2641 148.385 13.6081 149.657 12.1681C150.953 10.7041 152.525 9.57606 154.373 8.78406C156.245 7.96806 158.237 7.56006 160.349 7.56006ZM160.241 10.7641C159.737 10.7641 159.197 11.2201 158.621 12.1321C158.069 13.0201 157.409 14.7121 156.641 17.2081C155.873 19.7041 155.489 21.4561 155.489 22.4641C155.489 22.9921 155.573 23.3521 155.741 23.5441C155.909 23.7121 156.137 23.7961 156.425 23.7961C156.929 23.8441 157.445 23.4121 157.973 22.5001C158.525 21.5881 159.209 19.8121 160.025 17.1721C160.769 14.8441 161.141 13.1521 161.141 12.0961C161.141 11.5921 161.057 11.2441 160.889 11.0521C160.745 10.8601 160.529 10.7641 160.241 10.7641Z" fill="white"/>
<path d="M190.167 21.42C190.119 21.612 190.095 21.744 190.095 21.816C190.095 21.984 190.143 22.116 190.239 22.212C190.335 22.308 190.455 22.356 190.599 22.356C190.887 22.356 191.127 22.236 191.319 21.996C191.535 21.732 191.679 21.6 191.751 21.6C191.871 21.6 191.967 21.684 192.039 21.852C192.111 22.02 192.147 22.212 192.147 22.428C192.171 23.076 191.919 23.736 191.391 24.408C190.887 25.08 190.203 25.632 189.339 26.064C188.475 26.496 187.539 26.712 186.531 26.712C185.331 26.712 184.287 26.484 183.399 26.028C182.511 25.572 181.899 24.972 181.563 24.228C180.915 25.068 180.171 25.692 179.331 26.1C178.491 26.508 177.603 26.712 176.667 26.712C175.563 26.712 174.531 26.436 173.571 25.884C172.635 25.332 171.879 24.552 171.303 23.544C170.751 22.512 170.475 21.348 170.475 20.052C170.475 17.868 170.883 15.816 171.699 13.896C172.539 11.952 173.703 10.392 175.191 9.216C176.679 8.016 178.371 7.416 180.267 7.416C181.299 7.416 182.175 7.536 182.895 7.776C183.639 8.016 184.311 8.376 184.911 8.856L186.135 4.824C186.207 4.608 186.243 4.428 186.243 4.284C186.243 4.02 186.171 3.804 186.027 3.636C185.907 3.468 185.739 3.3 185.523 3.132C185.283 2.94 185.103 2.772 184.983 2.628C184.887 2.484 184.875 2.292 184.947 2.052C185.091 1.5 185.847 1.02 187.215 0.611994C188.583 0.204 190.011 0 191.499 0C192.891 0 193.911 0.264 194.559 0.792004C195.231 1.32 195.567 2.04 195.567 2.952C195.567 3.48 195.483 3.996 195.315 4.5L190.167 21.42ZM184.155 11.304C183.771 10.968 183.351 10.8 182.895 10.8C182.199 10.8 181.515 11.316 180.843 12.348C180.171 13.38 179.631 14.628 179.223 16.092C178.815 17.556 178.623 18.876 178.647 20.052C178.647 21.372 179.079 22.032 179.943 22.032C180.255 22.032 180.519 21.912 180.735 21.672C180.951 21.408 181.155 20.988 181.347 20.412L184.155 11.304Z" fill="white"/>
</svg>
